<svg width="512" height="444" viewBox="0 0 512 444" fill="none" xmlns="http://www.w3.org/2000/svg">
<path d="M510.858 64.1368C503.433 51.2578 498.8 42.8368 494.167 34.4198C489.484 25.9118 484.8 17.4068 477.3 4.40284C477.175 4.18684 476.993 4.02184 476.852 3.81984C476.705 3.60884 476.556 3.41484 476.388 3.21684C475.735 2.44184 475 1.75383 474.133 1.25883C474.126 1.25483 474.123 1.24784 474.116 1.24384C474.088 1.22784 474.057 1.23084 474.029 1.21484C473.188 0.748836 472.26 0.475834 471.297 0.315834C471.039 0.272834 470.795 0.233836 470.537 0.214836C470.324 0.198836 470.123 0.131836 469.908 0.131836H42.092C39.042 0.131836 36.225 1.76084 34.7 4.40284C27.2 17.4068 22.517 25.9108 17.833 34.4198C13.2 42.8378 8.56698 51.2578 1.14198 64.1368C1.02798 64.3338 0.982977 64.5538 0.886977 64.7568C0.772977 64.9958 0.681977 65.2288 0.589977 65.4788C0.245977 66.416 0.0129766 67.38 0.00797656 68.363C0.00797656 68.375 0.000976562 68.386 0.000976562 68.398C0.000976562 68.401 0.00297656 68.403 0.00297656 68.406C0.00297656 69.407 0.242977 70.388 0.594977 71.34C0.684977 71.581 0.775977 71.807 0.885977 72.037C0.988977 72.253 1.03798 72.485 1.15998 72.694L215.068 439.627C216.601 442.252 219.41 443.864 222.443 443.864H289.56C289.562 443.864 289.564 443.863 289.564 443.863L289.568 443.864C290.02 443.864 290.47 443.757 290.921 443.684C291.205 443.638 291.503 443.644 291.779 443.57C291.852 443.55 291.92 443.503 291.993 443.481C292.648 443.285 293.282 443.029 293.869 442.685C293.885 442.676 293.903 442.673 293.919 442.664C293.966 442.636 293.989 442.587 294.036 442.558C294.841 442.06 295.53 441.404 296.136 440.657C296.287 440.471 296.434 440.297 296.568 440.1C296.682 439.933 296.833 439.802 296.936 439.626L510.844 72.693C512.383 70.054 512.383 66.787 510.858 64.1368ZM32.792 42.6498C36.892 35.1958 40.992 27.7418 47.034 17.1998H455.25L290.667 307.187L268.034 267.911L382.826 72.724C384.376 70.087 384.393 66.82 382.876 64.1608C381.351 61.5028 378.526 59.8648 375.468 59.8648H23.223C26.869 53.3978 29.844 47.9968 32.792 42.6498ZM258.232 250.904L187.483 128.133H330.438L258.232 250.904ZM227.342 426.8L23.383 76.933H360.55L340.475 111.066H101.8C97.083 111.066 93.267 114.887 93.267 119.599C93.267 121.411 93.834 123.095 94.8 124.478L274.557 426.8H227.342ZM289.487 418.517L116.825 128.133H167.786L283.117 328.279C283.192 328.421 283.267 328.558 283.35 328.696C284.875 331.317 287.7 332.933 290.733 332.933C293.783 332.933 296.6 331.308 298.125 328.67C298.233 328.474 298.342 328.274 298.433 328.07L469.925 25.9298C473.446 32.1818 476.347 37.4468 479.208 42.6488C483.358 50.1778 487.5 57.7118 493.608 68.37L289.487 418.517Z" fill="white"/>
</svg>
