<svg width="429" height="493" viewBox="0 0 429 493" fill="none" xmlns="http://www.w3.org/2000/svg">
<path d="M424.9 153.643L216.9 53.4512C215.1 52.5566 213 52.5566 211.2 53.4512L3.2 153.643C1.3 154.538 0 156.417 0 158.385V387.396C0 389.364 1.2 391.153 3.2 392.137L211.2 492.329C213 493.224 215.1 493.224 216.9 492.329L424.9 392.137C426.8 391.242 428.1 389.364 428.1 387.396V158.385C428.1 156.417 426.9 154.627 424.9 153.643ZM214.1 64.2756L409.4 158.385L214.1 252.494L18.8 158.385L214.1 64.2756ZM12.1 167.42L208.1 261.798V478.642L12.1 384.175V167.42ZM220.1 478.642V261.798L416.1 167.42V384.265L220.1 478.642Z" fill="white"/>
<path d="M67.1603 420.719L212.16 492.285C213.96 493.18 216.16 493.18 217.96 492.285L361.96 420.719C364.86 419.288 365.86 415.978 364.26 413.383C363.76 412.489 362.86 411.773 361.96 411.326L217.96 339.76C216.16 338.865 213.96 338.865 212.16 339.76L67.1603 411.326C64.2603 412.757 63.2603 416.067 64.8603 418.661C65.3603 419.467 66.1603 420.182 67.1603 420.719ZM221.06 478.419V353.536L346.66 415.978L221.06 478.419ZM209.06 353.536V478.509L82.4603 415.978L209.06 353.536Z" fill="white"/>
<path d="M67.1603 189.918L212.16 261.484C213.96 262.379 216.16 262.379 217.96 261.484L361.96 189.918C364.86 188.487 365.86 185.177 364.26 182.583C363.76 181.688 362.86 180.972 361.96 180.525L217.96 108.959C216.16 108.064 213.96 108.064 212.16 108.959L67.1603 180.525C64.2603 181.956 63.2603 185.266 64.8603 187.861C65.3603 188.666 66.1603 189.381 67.1603 189.918ZM221.06 247.618V122.735L346.66 185.177L221.06 247.618ZM209.06 122.735V247.708L82.4603 185.177L209.06 122.735Z" fill="white"/>
<path d="M424.9 100.863L216.9 0.670931C215.1 -0.223644 213 -0.223644 211.2 0.670931L3.2 100.863C1.3 101.758 0 103.636 0 105.604V334.616C0 336.584 1.2 338.373 3.2 339.357L211.2 439.549C213 440.444 215.1 440.444 216.9 439.549L424.9 339.357C426.8 338.462 428.1 336.584 428.1 334.616V105.604C428.1 103.636 426.9 101.847 424.9 100.863ZM214.1 11.4953L409.4 105.604L214.1 199.714L18.8 105.604L214.1 11.4953ZM12.1 114.64L208.1 209.017V425.862L12.1 331.395V114.64ZM220.1 425.862V209.017L416.1 114.64V331.485L220.1 425.862Z" fill="white"/>
<path d="M67.1603 367.939L212.16 439.505C213.96 440.399 216.16 440.399 217.96 439.505L361.96 367.939C364.86 366.507 365.86 363.197 364.26 360.603C363.76 359.709 362.86 358.993 361.96 358.546L217.96 286.98C216.16 286.085 213.96 286.085 212.16 286.98L67.1603 358.546C64.2603 359.977 63.2603 363.287 64.8603 365.881C65.3603 366.686 66.1603 367.402 67.1603 367.939ZM221.06 425.639V300.756L346.66 363.197L221.06 425.639ZM209.06 300.756V425.728L82.4603 363.197L209.06 300.756Z" fill="white"/>
<path d="M67.1603 137.138L212.16 208.704C213.96 209.599 216.16 209.599 217.96 208.704L361.96 137.138C364.86 135.707 365.86 132.397 364.26 129.802C363.76 128.908 362.86 128.192 361.96 127.745L217.96 56.1787C216.16 55.2842 213.96 55.2842 212.16 56.1787L67.1603 127.745C64.2603 129.176 63.2603 132.486 64.8603 135.08C65.3603 135.886 66.1603 136.601 67.1603 137.138ZM221.06 194.838V69.9552L346.66 132.397L221.06 194.838ZM209.06 69.9552V194.927L82.4603 132.397L209.06 69.9552Z" fill="white"/>
</svg>
