<svg width="861" height="777" viewBox="0 0 861 777" fill="none" xmlns="http://www.w3.org/2000/svg">
<g clip-path="url(#clip0_168_25)">
<path d="M669.121 377.105H615.662C594.202 377.105 576.817 359.723 576.817 338.302C576.817 316.866 594.217 299.499 615.662 299.499H669.939C730.335 299.499 781.462 252.285 783.249 191.971C785.112 129.296 734.62 77.7257 672.302 77.7257H259.195C239.992 77.7257 223.212 92.1577 221.925 111.294C220.516 132.277 237.205 149.795 257.923 149.795H424.056C485.966 149.795 538.365 198.188 540.198 260.016C542.106 324.248 490.358 377.105 426.464 377.105H291.8C270.341 377.105 252.955 359.723 252.955 338.302C252.955 316.866 270.356 299.499 291.8 299.499H425.192C444.395 299.499 461.175 285.067 462.462 265.931C463.87 244.948 447.181 227.43 426.464 227.43H260.331C198.421 227.43 146.021 179.037 144.189 117.209C142.281 52.9615 194.044 0.10498 257.923 0.10498H672.286C777.555 0.10498 862.969 86.6511 860.954 192.243C859.001 295.445 772.451 377.105 669.121 377.105Z" fill="#FF971E"/>
<path d="M673.074 227.415C694.528 227.415 711.919 210.043 711.919 188.613C711.919 167.182 694.528 149.81 673.074 149.81C651.621 149.81 634.229 167.182 634.229 188.613C634.229 210.043 651.621 227.415 673.074 227.415Z" fill="#02A3AB"/>
<path d="M182.989 377.105C204.442 377.105 221.834 359.732 221.834 338.302C221.834 316.872 204.442 299.499 182.989 299.499C161.535 299.499 144.144 316.872 144.144 338.302C144.144 359.732 161.535 377.105 182.989 377.105Z" fill="#FF1B28"/>
<path d="M38.8452 377.105C60.2988 377.105 77.6904 359.732 77.6904 338.302C77.6904 316.872 60.2988 299.499 38.8452 299.499C17.3916 299.499 0 316.872 0 338.302C0 359.732 17.3916 377.105 38.8452 377.105Z" fill="#02A3AB"/>
<path d="M66.8774 151.247C88.331 151.247 105.723 133.874 105.723 112.444C105.723 91.0139 88.331 73.6412 66.8774 73.6412C45.4238 73.6412 28.0322 91.0139 28.0322 112.444C28.0322 133.874 45.4238 151.247 66.8774 151.247Z" fill="#FF1B28"/>
</g>
<path d="M87.5187 513.424C51.915 513.424 33.1701 522.44 33.1701 536.681C33.1701 544.507 38.1494 549.733 48.1255 553.293C66.8703 559.938 95.1152 557.806 130.005 562.309C172.73 567.764 193.14 582.481 193.14 611.202C193.14 647.273 160.383 668.397 99.3895 668.397C59.0797 668.397 27.2568 660.51 3.00396 643.801C-0.300842 641.527 -0.970623 636.9 1.4529 633.71L8.95259 623.822C11.0853 621.011 14.9806 620.174 18.0562 621.919C43.8865 636.618 70.3073 643.484 99.6274 643.484C140.448 643.484 162.286 631.622 162.286 613.106C162.286 588.659 133.098 588.659 82.5482 585.337C29.6186 581.768 3.03919 573.466 3.03919 540.48C3.03919 507.493 33.8928 488.264 89.669 488.264C123.166 488.264 151.808 495.252 175.417 509.071C179.277 511.327 180.044 516.615 177.048 519.937L168.966 528.908C166.843 531.261 163.441 531.878 160.577 530.512C136.588 519.056 112.899 513.416 87.5362 513.416L87.5187 513.424Z" fill="#FF971E"/>
<path d="M410.014 646.568C391.031 660.809 364.443 669.349 334.541 669.349C304.64 669.349 277.346 660.562 258.593 646.33C235.565 629.004 223.941 606.223 223.941 578.216C223.941 550.209 235.803 527.903 259.06 510.34C278.281 495.86 305.107 487.083 334.533 487.083C363.959 487.083 390.776 495.869 409.767 510.34C432.786 527.903 444.648 550.923 444.648 578.216C444.648 605.509 433.016 629.242 409.997 646.568H410.014ZM389.366 529.322C375.6 519.355 356.142 513.186 334.541 513.186C286.6 513.186 253.605 540.717 253.605 578.216C253.605 615.714 285.172 643.245 334.541 643.245C383.911 643.245 414.993 616.666 414.993 578.216C414.993 558.281 406.454 541.907 389.366 529.322Z" fill="#FF971E"/>
<path d="M493.048 657.266V499.641C493.048 495.719 496.229 492.546 500.142 492.546H514.419C518.341 492.546 521.513 495.728 521.513 499.641V631.401C521.513 635.322 524.695 638.495 528.607 638.495H647.078C651 638.495 654.172 641.676 654.172 645.589V657.257C654.172 661.179 650.991 664.352 647.078 664.352H500.133C496.212 664.352 493.039 661.17 493.039 657.257L493.048 657.266Z" fill="#FF971E"/>
<path d="M681.122 657.266V499.641C681.122 495.719 684.303 492.546 688.216 492.546H847.27C851.191 492.546 854.364 495.728 854.364 499.641V511.318C854.364 515.239 851.183 518.412 847.27 518.412H716.691C712.769 518.412 709.596 521.593 709.596 525.506V555.214C709.596 559.136 712.778 562.308 716.691 562.308H803.126C807.048 562.308 810.221 565.49 810.221 569.403V581.08C810.221 585.001 807.039 588.174 803.126 588.174H716.691C712.769 588.174 709.596 591.355 709.596 595.268V631.383C709.596 635.305 712.778 638.477 716.691 638.477H853.906C857.827 638.477 861 641.659 861 645.572V657.24C861 661.162 857.819 664.334 853.906 664.334H688.208C684.286 664.334 681.113 661.153 681.113 657.24L681.122 657.266Z" fill="#FF971E"/>
<path d="M75.4971 743.536C75.4971 752.41 72.0205 760.154 65.3252 765.978C59.2346 771.367 50.9746 774.327 41.8431 774.327H2.60523C1.16482 774.327 0 773.163 0 771.722V713.955C0 712.514 1.16482 711.349 2.60523 711.349H39.8425C61.8488 711.349 75.506 724.046 75.506 743.528L75.4971 743.536ZM64.1872 743.279C64.1872 729.879 54.7979 720.837 40.705 720.837H13.0349C11.5944 720.837 10.4296 722.001 10.4296 723.442V762.253C10.4296 763.693 11.5944 764.858 13.0349 764.858H42.7055C55.2335 764.858 64.1872 755.895 64.1872 743.287V743.279Z" fill="#FF1B28"/>
<path d="M92.6128 774.327V711.358H103.051V774.327H92.6128Z" fill="#FF1B28"/>
<path d="M161.148 776.159C150.185 776.159 140.271 772.94 133.398 767.721C125.049 761.372 120.79 753.023 120.79 742.754C120.79 732.484 125.049 724.313 133.576 717.876C140.707 712.399 150.621 709.349 162.02 709.349C174.868 709.349 185.04 713.323 193.655 721.939C194.918 723.202 194.607 725.336 193.006 726.136L188.071 728.608C187.093 729.097 185.902 728.919 185.111 728.154C178.958 722.188 171.24 718.925 161.157 718.925C153.333 718.925 146.113 721.183 141.063 724.838C134.803 729.452 131.673 735.445 131.673 742.754C131.673 756.758 143.33 766.583 161.157 766.583C173 766.583 181.705 762.199 186.418 754.224C187.44 752.499 186.16 750.32 184.159 750.32H161.584C160.143 750.32 158.979 749.156 158.979 747.715V743.438C158.979 741.998 160.143 740.833 161.584 740.833H201.346V741.785C201.346 762.226 185.511 776.141 161.157 776.141L161.148 776.159Z" fill="#FF1B28"/>
<path d="M219.067 771.731V713.963C219.067 712.523 220.232 711.358 221.672 711.358H226.909C228.35 711.358 229.514 712.523 229.514 713.963V771.731C229.514 773.171 228.35 774.336 226.909 774.336H221.672C220.232 774.336 219.067 773.171 219.067 771.731Z" fill="#FF1B28"/>
<path d="M280.987 723.442V771.731C280.987 773.172 279.823 774.336 278.382 774.336H273.145C271.705 774.336 270.54 773.172 270.54 771.731V723.442C270.54 722.001 269.375 720.837 267.935 720.837H243.039C241.598 720.837 240.434 719.672 240.434 718.231V713.955C240.434 712.514 241.598 711.349 243.039 711.349H308.462C309.902 711.349 311.067 712.514 311.067 713.955V718.231C311.067 719.672 309.902 720.837 308.462 720.837H283.566C282.125 720.837 280.961 722.001 280.961 723.442H280.987Z" fill="#FF1B28"/>
<path d="M371.315 772.931L365.464 761.648C365.02 760.786 364.13 760.243 363.152 760.243H323.959C322.99 760.243 322.101 760.786 321.647 761.648L315.797 772.931C315.352 773.794 314.463 774.336 313.485 774.336H307.99C306.034 774.336 304.771 772.247 305.687 770.522L336.247 712.754C336.7 711.9 337.581 711.367 338.55 711.367H348.553C349.513 711.367 350.402 711.9 350.855 712.754L381.415 770.522C382.331 772.255 381.077 774.336 379.112 774.336H373.618C372.648 774.336 371.759 773.794 371.306 772.931H371.315ZM341.297 724.677L329.534 746.942C328.618 748.675 329.872 750.756 331.837 750.756H355.31C357.266 750.756 358.52 748.675 357.613 746.942L345.912 724.677C344.934 722.828 342.284 722.819 341.306 724.677H341.297Z" fill="#FF1B28"/>
<path d="M394.565 771.731V713.963C394.565 712.523 395.73 711.358 397.171 711.358H402.408C403.848 711.358 405.013 712.523 405.013 713.963V762.252C405.013 763.693 406.178 764.857 407.618 764.857H451.035C452.475 764.857 453.64 766.022 453.64 767.463V771.739C453.64 773.18 452.475 774.345 451.035 774.345H397.18C395.739 774.345 394.574 773.18 394.574 771.739L394.565 771.731Z" fill="#FF1B28"/>
<path d="M551.648 776.124C550.208 776.124 549.043 774.959 549.043 773.519V724.625H548.785L518.128 763.116C517.087 764.423 515.087 764.423 514.055 763.116L483.647 724.634H483.389V773.528C483.389 774.968 482.224 776.133 480.784 776.133H475.547C474.106 776.133 472.941 774.968 472.941 773.528V715.76C472.941 714.32 474.106 713.155 475.547 713.155H484.651C485.443 713.155 486.199 713.52 486.688 714.142L514.135 748.694C515.176 750.001 517.167 750.001 518.208 748.694L545.744 714.133C546.242 713.511 546.989 713.155 547.781 713.155H556.885C558.326 713.155 559.491 714.32 559.491 715.76V773.528C559.491 774.968 558.326 776.133 556.885 776.133H551.648V776.124Z" fill="#02A3AB"/>
<path d="M580.528 773.527V715.76C580.528 714.319 581.693 713.154 583.134 713.154H641.426C642.866 713.154 644.031 714.319 644.031 715.76V720.036C644.031 721.477 642.866 722.642 641.426 722.642H593.572C592.132 722.642 590.967 723.806 590.967 725.247V736.13C590.967 737.57 592.132 738.735 593.572 738.735H625.252C626.693 738.735 627.857 739.9 627.857 741.34V745.617C627.857 747.057 626.693 748.222 625.252 748.222H593.572C592.132 748.222 590.967 749.387 590.967 750.827V764.067C590.967 765.507 592.132 766.672 593.572 766.672H643.862C645.302 766.672 646.467 767.837 646.467 769.277V773.554C646.467 774.994 645.302 776.159 643.862 776.159H583.134C581.693 776.159 580.528 774.994 580.528 773.554V773.527Z" fill="#02A3AB"/>
<path d="M737.684 745.332C737.684 754.206 734.207 761.951 727.512 767.774C721.421 773.163 713.161 776.123 704.029 776.123H662.195V713.154H702.029C724.035 713.154 737.692 725.851 737.692 745.332H737.684ZM726.374 745.075C726.374 731.675 716.984 722.633 702.891 722.633H672.625V766.645H704.892C717.42 766.645 726.374 757.683 726.374 745.075Z" fill="#02A3AB"/>
<path d="M754.8 773.527V715.76C754.8 714.319 755.965 713.154 757.405 713.154H762.642C764.083 713.154 765.248 714.319 765.248 715.76V773.527C765.248 774.968 764.083 776.132 762.642 776.132H757.405C755.965 776.132 754.8 774.968 754.8 773.527Z" fill="#02A3AB"/>
<path d="M844.008 774.728L838.158 763.445C837.713 762.582 836.824 762.04 835.846 762.04H796.652C795.683 762.04 794.794 762.582 794.341 763.445L788.49 774.728C788.046 775.59 787.156 776.133 786.178 776.133H780.683C778.727 776.133 777.465 774.043 778.38 772.318L808.94 714.551C809.394 713.697 810.274 713.164 811.243 713.164H821.246C822.206 713.164 823.095 713.697 823.549 714.551L854.109 772.318C855.025 774.052 853.771 776.133 851.806 776.133H846.311C845.342 776.133 844.453 775.59 843.999 774.728H844.008ZM813.991 726.474L802.227 748.738C801.311 750.472 802.565 752.553 804.53 752.553H828.004C829.96 752.553 831.213 750.472 830.306 748.738L818.605 726.474C817.627 724.625 814.978 724.616 814 726.474H813.991Z" fill="#02A3AB"/>
<defs>
<clipPath id="clip0_168_25">
<rect width="861" height="377" fill="white" transform="translate(0 0.10498)"/>
</clipPath>
</defs>
</svg>
