<svg width="163" height="72" viewBox="0 0 163 72" fill="none" xmlns="http://www.w3.org/2000/svg">
<path d="M126.674 71.4496H116.552C112.49 71.4496 109.197 68.1565 109.197 64.0943C109.197 60.0321 112.49 56.739 116.552 56.739H126.827C138.261 56.739 147.939 47.7903 148.279 36.36C148.631 24.4836 139.073 14.7085 127.273 14.7085H49.0692C45.4341 14.7085 42.2578 17.4449 42.0135 21.0716C41.7479 25.0488 44.9072 28.3695 48.827 28.3695H80.2772C91.9985 28.3695 101.918 37.5413 102.267 49.2583C102.628 61.4322 92.8292 71.4496 80.7361 71.4496H55.2411C51.1789 71.4496 47.8858 68.1565 47.8858 64.0943C47.8858 60.0321 51.1789 56.739 55.2411 56.739H80.4939C84.1269 56.739 87.3053 54.0025 87.5496 50.3759C87.8152 46.3987 84.6559 43.0779 80.7361 43.0779H49.2859C37.5646 43.0779 27.645 33.9061 27.2965 22.1891C26.9354 10.0195 36.7339 0 48.8291 0H127.275C147.203 0 163.374 16.4017 162.993 36.4153C162.622 55.9741 146.237 71.4496 126.676 71.4496H126.674Z" fill="white"/>
<path d="M127.422 43.0797C131.484 43.0797 134.777 39.7866 134.777 35.7244C134.777 31.6622 131.484 28.3691 127.422 28.3691C123.359 28.3691 120.066 31.6622 120.066 35.7244C120.066 39.7866 123.359 43.0797 127.422 43.0797Z" fill="white"/>
<path d="M34.6434 71.4498C38.7056 71.4498 41.9987 68.1568 41.9987 64.0945C41.9987 60.0323 38.7056 56.7393 34.6434 56.7393C30.5812 56.7393 27.2881 60.0323 27.2881 64.0945C27.2881 68.1568 30.5812 71.4498 34.6434 71.4498Z" fill="white"/>
<path d="M7.35529 71.4498C11.4175 71.4498 14.7106 68.1568 14.7106 64.0945C14.7106 60.0323 11.4175 56.7393 7.35529 56.7393C3.29308 56.7393 0 60.0323 0 64.0945C0 68.1568 3.29308 71.4498 7.35529 71.4498Z" fill="white"/>
<path d="M12.6605 28.6461C16.7227 28.6461 20.0158 25.3531 20.0158 21.2908C20.0158 17.2286 16.7227 13.9355 12.6605 13.9355C8.59825 13.9355 5.30518 17.2286 5.30518 21.2908C5.30518 25.3531 8.59825 28.6461 12.6605 28.6461Z" fill="white"/>
</svg>
