<svg width="754" height="160" viewBox="0 0 754 160" fill="none" xmlns="http://www.w3.org/2000/svg">
<path d="M283.854 159.593H261.246C252.173 159.593 244.817 152.237 244.817 143.164C244.817 134.09 252.173 126.735 261.246 126.735H284.195C309.736 126.735 331.352 106.746 332.111 81.2153C332.899 54.6877 311.549 32.8534 285.192 32.8534H110.513C102.394 32.8534 95.2989 38.9657 94.7532 47.0664C94.16 55.95 101.217 63.3673 109.972 63.3673H180.221C206.402 63.3673 228.559 83.8539 229.337 110.026C230.144 137.218 208.257 159.593 181.246 159.593H124.299C115.225 159.593 107.87 152.237 107.87 143.164C107.87 134.09 115.225 126.735 124.299 126.735H180.705C188.819 126.735 195.919 120.622 196.465 112.522C197.058 103.638 190.001 96.2207 181.246 96.2207H110.997C84.816 96.2207 62.659 75.7342 61.8807 49.5625C61.074 22.38 82.9605 0 109.977 0H285.197C329.71 0 365.828 36.6356 364.979 81.3387C364.148 125.026 327.551 159.593 283.859 159.593H283.854Z" fill="white"/>
<path d="M285.524 96.2254C294.598 96.2254 301.953 88.8698 301.953 79.7963C301.953 70.7227 294.598 63.3672 285.524 63.3672C276.451 63.3672 269.095 70.7227 269.095 79.7963C269.095 88.8698 276.451 96.2254 285.524 96.2254Z" fill="white"/>
<path d="M78.2909 159.593C87.3644 159.593 94.72 152.237 94.72 143.164C94.72 134.09 87.3644 126.735 78.2909 126.735C69.2174 126.735 61.8618 134.09 61.8618 143.164C61.8618 152.237 69.2174 159.593 78.2909 159.593Z" fill="white"/>
<path d="M17.339 159.593C26.4125 159.593 33.7681 152.237 33.7681 143.164C33.7681 134.09 26.4125 126.735 17.339 126.735C8.26547 126.735 0.909912 134.09 0.909912 143.164C0.909912 152.237 8.26547 159.593 17.339 159.593Z" fill="white"/>
<path d="M29.1886 63.9842C38.2621 63.9842 45.6177 56.6286 45.6177 47.5551C45.6177 38.4815 38.2621 31.126 29.1886 31.126C20.1151 31.126 12.7595 38.4815 12.7595 47.5551C12.7595 56.6286 20.1151 63.9842 29.1886 63.9842Z" fill="white"/>
<path d="M424.597 30.7861C409.434 30.7861 401.451 34.6256 401.451 40.6908C401.451 44.0236 403.571 46.2492 407.82 47.7655C415.803 50.5954 427.832 49.6872 442.691 51.605C460.886 53.9283 469.578 60.1961 469.578 72.4277C469.578 87.7895 455.628 96.7858 429.652 96.7858C412.485 96.7858 398.932 93.4267 388.604 86.3107C387.196 85.3424 386.911 83.372 387.943 82.0133L391.137 77.8023C392.045 76.605 393.704 76.2484 395.014 76.9916C406.015 83.2519 417.267 86.1756 429.753 86.1756C447.138 86.1756 456.439 81.1238 456.439 73.2384C456.439 62.8271 444.008 62.8271 422.48 61.4121C399.938 59.8921 388.619 56.3566 388.619 42.3084C388.619 28.2602 401.758 20.0708 425.512 20.0708C439.778 20.0708 451.976 23.0471 462.031 28.9321C463.675 29.8929 464.001 32.1448 462.725 33.5597L459.283 37.3805C458.379 38.3826 456.93 38.6453 455.71 38.0636C445.494 33.1844 435.406 30.7824 424.604 30.7824L424.597 30.7861Z" fill="white"/>
<path d="M561.94 87.4892C553.856 93.5544 542.533 97.1912 529.798 97.1912C517.064 97.1912 505.44 93.4493 497.453 87.3879C487.646 80.0091 482.696 70.3071 482.696 58.3795C482.696 46.4519 487.748 36.9526 497.652 29.4725C505.838 23.306 517.263 19.5679 529.794 19.5679C542.326 19.5679 553.747 23.3098 561.835 29.4725C571.639 36.9526 576.69 46.7559 576.69 58.3795C576.69 70.0031 571.736 80.1105 561.933 87.4892H561.94ZM553.147 37.5569C547.284 33.312 538.997 30.6848 529.798 30.6848C509.381 30.6848 495.329 42.4097 495.329 58.3795C495.329 74.3493 508.773 86.0743 529.798 86.0743C550.824 86.0743 564.061 74.7547 564.061 58.3795C564.061 49.8898 560.424 42.9164 553.147 37.5569Z" fill="white"/>
<path d="M597.303 92.0457V24.9163C597.303 23.2462 598.658 21.895 600.324 21.895H606.405C608.075 21.895 609.426 23.2499 609.426 24.9163V81.0302C609.426 82.7003 610.781 84.0515 612.447 84.0515H662.901C664.571 84.0515 665.922 85.4064 665.922 87.0728V92.042C665.922 93.7122 664.568 95.0633 662.901 95.0633H600.321C598.65 95.0633 597.299 93.7084 597.299 92.042L597.303 92.0457Z" fill="white"/>
<path d="M677.4 92.0457V24.9163C677.4 23.2462 678.755 21.895 680.421 21.895H748.159C749.829 21.895 751.18 23.2499 751.18 24.9163V29.8893C751.18 31.5595 749.825 32.9106 748.159 32.9106H692.548C690.877 32.9106 689.526 34.2655 689.526 35.9319V48.5839C689.526 50.2541 690.881 51.6052 692.548 51.6052H729.359C731.029 51.6052 732.38 52.9601 732.38 54.6265V59.5995C732.38 61.2697 731.025 62.6208 729.359 62.6208H692.548C690.877 62.6208 689.526 63.9757 689.526 65.6421V81.0227C689.526 82.6928 690.881 84.044 692.548 84.044H750.985C752.655 84.044 754.006 85.3989 754.006 87.0653V92.0345C754.006 93.7047 752.651 95.0558 750.985 95.0558H680.417C678.747 95.0558 677.396 93.7009 677.396 92.0345L677.4 92.0457Z" fill="white"/>
<path d="M421.972 126.132C421.972 129.911 420.492 133.209 417.64 135.689C415.046 137.984 411.529 139.245 407.64 139.245H390.929C390.316 139.245 389.82 138.749 389.82 138.135V113.533C389.82 112.92 390.316 112.424 390.929 112.424H406.788C416.16 112.424 421.976 117.831 421.976 126.128L421.972 126.132ZM417.156 126.022C417.156 120.315 413.157 116.464 407.155 116.464H395.371C394.757 116.464 394.261 116.96 394.261 117.574V134.103C394.261 134.716 394.757 135.212 395.371 135.212H408.007C413.342 135.212 417.156 131.395 417.156 126.026V126.022Z" fill="white"/>
<path d="M429.261 139.244V112.427H433.707V139.244H429.261Z" fill="white"/>
<path d="M458.449 140.025C453.78 140.025 449.558 138.654 446.631 136.431C443.075 133.728 441.261 130.172 441.261 125.798C441.261 121.425 443.075 117.945 446.707 115.203C449.744 112.871 453.966 111.572 458.82 111.572C464.292 111.572 468.624 113.264 472.293 116.934C472.831 117.471 472.698 118.38 472.017 118.721L469.915 119.774C469.499 119.982 468.991 119.906 468.654 119.581C466.034 117.04 462.747 115.65 458.453 115.65C455.121 115.65 452.046 116.612 449.895 118.168C447.229 120.133 445.896 122.686 445.896 125.798C445.896 131.762 450.861 135.947 458.453 135.947C463.497 135.947 467.204 134.08 469.211 130.683C469.646 129.948 469.101 129.021 468.249 129.021H458.635C458.021 129.021 457.525 128.525 457.525 127.911V126.09C457.525 125.476 458.021 124.98 458.635 124.98H475.569V125.386C475.569 134.091 468.825 140.017 458.453 140.017L458.449 140.025Z" fill="white"/>
<path d="M483.115 138.139V113.537C483.115 112.923 483.612 112.427 484.225 112.427H486.455C487.069 112.427 487.565 112.923 487.565 113.537V138.139C487.565 138.752 487.069 139.248 486.455 139.248H484.225C483.612 139.248 483.115 138.752 483.115 138.139Z" fill="white"/>
<path d="M509.486 117.574V138.139C509.486 138.753 508.99 139.249 508.377 139.249H506.146C505.533 139.249 505.037 138.753 505.037 138.139V117.574C505.037 116.96 504.541 116.464 503.927 116.464H493.325C492.711 116.464 492.215 115.968 492.215 115.355V113.533C492.215 112.92 492.711 112.424 493.325 112.424H521.187C521.8 112.424 522.296 112.92 522.296 113.533V115.355C522.296 115.968 521.8 116.464 521.187 116.464H510.584C509.971 116.464 509.475 116.96 509.475 117.574H509.486Z" fill="white"/>
<path d="M547.955 138.65L545.463 133.845C545.274 133.477 544.895 133.246 544.479 133.246H527.787C527.374 133.246 526.996 133.477 526.802 133.845L524.311 138.65C524.121 139.017 523.743 139.248 523.326 139.248H520.986C520.153 139.248 519.615 138.358 520.005 137.624L533.02 113.022C533.213 112.658 533.588 112.431 534.001 112.431H538.261C538.67 112.431 539.048 112.658 539.242 113.022L552.256 137.624C552.646 138.362 552.112 139.248 551.276 139.248H548.935C548.523 139.248 548.144 139.017 547.951 138.65H547.955ZM535.171 118.1L530.161 127.582C529.771 128.32 530.305 129.206 531.142 129.206H541.139C541.972 129.206 542.506 128.32 542.119 127.582L537.136 118.1C536.72 117.312 535.591 117.308 535.175 118.1H535.171Z" fill="white"/>
<path d="M557.857 138.139V113.537C557.857 112.923 558.353 112.427 558.966 112.427H561.197C561.81 112.427 562.306 112.923 562.306 113.537V134.102C562.306 134.716 562.802 135.212 563.416 135.212H581.906C582.519 135.212 583.015 135.708 583.015 136.321V138.143C583.015 138.756 582.519 139.252 581.906 139.252H558.97C558.357 139.252 557.86 138.756 557.86 138.143L557.857 138.139Z" fill="white"/>
<path d="M624.975 139.2C624.361 139.2 623.865 138.703 623.865 138.09V117.267H623.755L610.699 133.66C610.256 134.216 609.404 134.216 608.965 133.66L596.014 117.271H595.904V138.094C595.904 138.707 595.408 139.203 594.795 139.203H592.565C591.951 139.203 591.455 138.707 591.455 138.094V113.492C591.455 112.878 591.951 112.382 592.565 112.382H596.442C596.779 112.382 597.101 112.538 597.309 112.803L608.999 127.518C609.442 128.074 610.29 128.074 610.733 127.518L622.46 112.799C622.672 112.534 622.99 112.382 623.327 112.382H627.205C627.818 112.382 628.315 112.878 628.315 113.492V138.094C628.315 138.707 627.818 139.203 627.205 139.203H624.975V139.2Z" fill="white"/>
<path d="M637.274 138.094V113.492C637.274 112.878 637.77 112.382 638.383 112.382H663.209C663.822 112.382 664.318 112.878 664.318 113.492V115.313C664.318 115.927 663.822 116.423 663.209 116.423H642.829C642.216 116.423 641.719 116.919 641.719 117.532V122.167C641.719 122.781 642.216 123.277 642.829 123.277H656.321C656.934 123.277 657.43 123.773 657.43 124.386V126.207C657.43 126.821 656.934 127.317 656.321 127.317H642.829C642.216 127.317 641.719 127.813 641.719 128.426V134.065C641.719 134.678 642.216 135.174 642.829 135.174H664.246C664.86 135.174 665.356 135.67 665.356 136.284V138.105C665.356 138.719 664.86 139.215 664.246 139.215H638.383C637.77 139.215 637.274 138.719 637.274 138.105V138.094Z" fill="white"/>
<path d="M704.203 126.086C704.203 129.865 702.723 133.164 699.871 135.644C697.277 137.939 693.76 139.2 689.871 139.2H672.054V112.382H689.019C698.391 112.382 704.207 117.79 704.207 126.086H704.203ZM699.387 125.976C699.387 120.27 695.388 116.419 689.386 116.419H676.496V135.163H690.238C695.573 135.163 699.387 131.346 699.387 125.976Z" fill="white"/>
<path d="M711.492 138.094V113.492C711.492 112.878 711.988 112.382 712.602 112.382H714.832C715.446 112.382 715.942 112.878 715.942 113.492V138.094C715.942 138.707 715.446 139.203 714.832 139.203H712.602C711.988 139.203 711.492 138.707 711.492 138.094Z" fill="white"/>
<path d="M749.484 138.605L746.993 133.799C746.803 133.432 746.425 133.201 746.008 133.201H729.316C728.904 133.201 728.525 133.432 728.332 133.799L725.84 138.605C725.651 138.972 725.272 139.203 724.856 139.203H722.516C721.683 139.203 721.145 138.313 721.535 137.578L734.55 112.976C734.743 112.613 735.118 112.386 735.53 112.386H739.79C740.199 112.386 740.578 112.613 740.771 112.976L753.786 137.578C754.176 138.317 753.642 139.203 752.805 139.203H750.465C750.052 139.203 749.674 138.972 749.48 138.605H749.484ZM736.7 118.054L731.691 127.536C731.301 128.275 731.835 129.161 732.671 129.161H742.668C743.501 129.161 744.035 128.275 743.649 127.536L738.666 118.054C738.249 117.267 737.121 117.263 736.704 118.054H736.7Z" fill="white"/>
</svg>
