<svg width="512" height="512" viewBox="0 0 512 512" fill="none" xmlns="http://www.w3.org/2000/svg">
<path d="M257.527 260.516C255.244 259.61 252.635 260.186 250.948 261.975L142.243 377.215C140.041 379.55 140.065 383.203 142.299 385.508L251.004 497.676C254.539 501.558 261.481 498.725 261.313 493.5V266.092C261.313 263.633 259.813 261.423 257.528 260.516H257.527ZM219.796 448.231L154.908 381.277L219.796 312.488V448.231ZM249.313 478.688L231.796 460.614V299.767L249.313 281.197V478.688Z" fill="white"/>
<path d="M248.996 252.056C249.903 249.771 249.325 247.163 247.537 245.476L132.292 136.777C129.957 134.576 126.305 134.6 123.999 136.833L11.824 245.532C10.069 247.233 9.52102 249.828 10.438 252.094C11.356 254.359 13.555 255.842 16 255.842H243.42C245.879 255.842 248.089 254.342 248.996 252.057V252.056ZM128.23 149.443L196.033 213.394H62.234L128.23 149.443ZM30.813 243.841L49.85 225.394H208.756L228.314 243.841H30.813Z" fill="white"/>
<path d="M226.188 267.129C225.271 264.863 223.071 263.38 220.626 263.38H89.953C86.713 263.38 84.058 265.952 83.956 269.192L79.845 399.669C79.511 404.886 86.362 407.936 90.015 404.169L224.8 273.691C226.557 271.991 227.105 269.395 226.188 267.129ZM92.304 385.25L95.766 275.38H205.802L92.304 385.25Z" fill="white"/>
<path d="M232.941 213.641C234.094 214.832 235.659 215.468 237.253 215.468C238.01 215.468 238.774 215.325 239.503 215.03C241.769 214.113 243.252 211.913 243.252 209.468V89.0574C243.252 85.7464 240.57 83.0614 237.26 83.0574L120.534 82.9004H120.526C118.119 82.9004 115.944 84.3394 115.004 86.5554C114.062 88.7744 114.539 91.3414 116.216 93.0734L232.942 213.64L232.941 213.641ZM231.252 95.0504V194.645L134.705 94.9204L231.252 95.0504Z" fill="white"/>
<path d="M379.353 130.167C379.353 128.544 378.696 126.991 377.532 125.861L262.477 14.1942C260.748 12.5152 258.181 12.0332 255.96 12.9742C253.74 13.9132 252.298 16.0892 252.298 18.5002V241.835C252.298 244.246 253.74 246.422 255.96 247.361C256.715 247.68 257.509 247.835 258.297 247.835C259.827 247.835 261.335 247.249 262.477 246.141L377.532 134.474C378.696 133.344 379.353 131.79 379.353 130.167ZM280.501 211.924L264.298 227.65V32.6852L280.501 48.4112V211.924ZM292.501 200.277V60.0572L364.737 130.167L292.501 200.277Z" fill="white"/>
<path d="M496 245.831H272.653C270.243 245.831 268.066 247.273 267.127 249.494C266.189 251.714 266.669 254.281 268.348 256.011L380.021 371.059C381.151 372.223 382.705 372.88 384.327 372.88C385.949 372.88 387.503 372.223 388.633 371.059L500.307 256.011C501.986 254.281 502.466 251.715 501.528 249.494C500.589 247.274 498.412 245.831 496.002 245.831H496ZM384.326 358.265L316.596 288.488H452.057L384.326 358.265ZM463.705 276.488H304.947L286.838 257.832H481.814L463.705 276.488Z" fill="white"/>
<path d="M415.236 111.3L294.663 228.02C292.906 229.72 292.357 232.316 293.274 234.582C294.191 236.848 296.391 238.331 298.836 238.331H419.252C422.563 238.331 425.247 235.65 425.252 232.339L425.409 115.619C425.412 113.208 423.972 111.03 421.754 110.088C419.538 109.149 416.969 109.623 415.236 111.3ZM413.259 226.331H313.659L413.388 129.789L413.258 226.331H413.259Z" fill="white"/>
<path d="M278.613 283.498C276.914 281.742 274.317 281.194 272.051 282.11C269.785 283.027 268.302 285.227 268.302 287.672V418.339C268.302 421.579 270.874 424.234 274.113 424.336L404.597 428.447C404.661 428.449 404.724 428.45 404.787 428.45C407.155 428.45 409.31 427.054 410.273 424.878C411.261 422.644 410.796 420.032 409.096 418.276L278.612 283.498H278.613ZM280.302 412.525V302.495L390.178 415.987L280.302 412.525Z" fill="white"/>
</svg>
