<svg width="512" height="512" viewBox="0 0 512 512" fill="none" xmlns="http://www.w3.org/2000/svg">
<path d="M466.8 122.7L258.8 10.7002C257 9.7002 254.9 9.7002 253.1 10.7002L45.0999 122.7C43.1999 123.7 41.8999 125.8 41.8999 128V384C41.8999 386.2 43.0999 388.2 45.0999 389.3L253.1 501.3C254.9 502.3 257 502.3 258.8 501.3L466.8 389.3C468.7 388.3 470 386.2 470 384V128C470 125.8 468.8 123.8 466.8 122.7ZM256 22.8002L451.3 128L256 233.2L60.6999 128L256 22.8002ZM53.9999 138.1L250 243.6V486L53.9999 380.4V138.1ZM262 486V243.6L458 138.1V380.5L262 486Z" fill="white"/>
<path d="M108.1 133.3L253.1 213.3C254.9 214.3 257.1 214.3 258.9 213.3L402.9 133.3C405.8 131.7 406.8 128 405.2 125.1C404.7 124.1 403.8 123.3 402.9 122.8L258.9 42.7998C257.1 41.7998 254.9 41.7998 253.1 42.7998L108.1 122.8C105.2 124.4 104.2 128.1 105.8 131C106.3 131.9 107.1 132.7 108.1 133.3ZM262 197.8V58.1998L387.6 128L262 197.8ZM250 58.1998V197.9L123.4 128L250 58.1998Z" fill="white"/>
<path d="M228.9 252.7L80.9 172.7C78 171.1 74.3 172.2 72.8 175.1C72.2 176 72 177 72 178V366C72 368.2 73.2 370.2 75.2 371.3L223.2 451.3C227 453.5 232.2 450.4 232.1 446V258C232 255.8 230.8 253.8 228.9 252.7ZM220 261.6V282.4L84 355.9V188.1L220 261.6ZM90.6 366L220 296.1V436L90.6 366Z" fill="white"/>
<path d="M437.1 172.9C435.3 171.8 433 171.8 431.2 172.8L283.2 252.8C281.3 253.8 280 255.9 280.1 258.1V446.1C280 450.5 285.1 453.6 289 451.4L437 371.4C438.9 370.4 440.2 368.3 440.1 366.1V178C440 175.9 438.9 173.9 437.1 172.9ZM428 188.1V356L292 282.5V261.7L428 188.1ZM292 296.1L421.4 366L292 435.9V296.1Z" fill="white"/>
</svg>
