<svg width="512" height="512" viewBox="0 0 512 512" fill="none" xmlns="http://www.w3.org/2000/svg">
<path d="M470 192V128C470 125.8 468.8 123.8 466.8 122.7L258.8 10.7002C257 9.7002 254.9 9.7002 253.1 10.7002L45.0999 122.7C43.1999 123.7 41.8999 125.8 41.8999 128V192C41.8999 194.2 43.0999 196.2 45.0999 197.3L65.0999 208L45.1999 218.7C43.2999 219.7 41.9999 221.8 41.9999 224V288C41.9999 290.2 43.1999 292.2 45.1999 293.3L65.0999 304L45.1999 314.7C43.2999 315.7 41.9999 317.8 41.9999 320V384C41.9999 386.2 43.1999 388.2 45.1999 389.3L253.2 501.3C255 502.3 257.1 502.3 258.9 501.3L466.9 389.3C468.8 388.3 470.1 386.2 470.1 384V320C470.1 317.8 468.9 315.8 466.9 314.7L446.9 304L466.8 293.3C468.7 292.3 470 290.2 470 288V224C470 221.8 468.8 219.8 466.8 218.7L446.9 208L466.8 197.3C468.8 196.2 470 194.2 470 192ZM256 22.8002L451.3 128L256 233.2L60.6999 128L256 22.8002ZM53.9999 138.1L250 243.6V294L53.9999 188.4V138.1ZM53.9999 234.1L250 339.6V390L53.9999 284.4V234.1ZM53.9999 330L250 435.5V486L53.9999 380.4V330ZM262 486V435.6L458 330V380.4L262 486ZM451.3 320L256 425.2L60.6999 320L77.6999 310.8L253.1 405.3C254.9 406.3 257 406.3 258.8 405.3L434.2 310.8L451.3 320ZM262 390V339.6L458 234.1V284.5L262 390ZM451.3 224L256 329.2L60.6999 224L77.6999 214.8L253.1 309.3C254.9 310.3 257 310.3 258.8 309.3L434.2 214.8L451.3 224ZM262 294V243.6L458 138.1V188.5L262 294Z" fill="white"/>
<path d="M402.9 122.8L258.9 42.7998C257.1 41.7998 254.9 41.7998 253.1 42.7998L109.1 122.8C105 124.9 105 131.2 109.1 133.3L253.1 213.3C254.9 214.3 257.1 214.3 258.9 213.3L402.9 133.3C407 131.1 407 124.9 402.9 122.8ZM250 58.1998V108.4L168 152.2L124.3 128L250 58.1998ZM256 201.1L180.4 159.1L256 118.8L331.6 159.2L256 201.1ZM344 152.2L262 108.4V58.1998L387.6 128L344 152.2Z" fill="white"/>
</svg>
