<svg width="44" height="48" viewBox="0 0 44 48" fill="none" xmlns="http://www.w3.org/2000/svg">
<path d="M42.5577 9.09638L22.4726 0.164407C22.3247 0.0948841 22.1634 0.0588379 22 0.0588379C21.8366 0.0588379 21.6753 0.0948841 21.5274 0.164407L1.44229 9.09638C1.2346 9.18698 1.05735 9.33539 0.931665 9.52393C0.805978 9.71246 0.737154 9.93315 0.733398 10.1597V16.4924C0.733398 28.1182 7.68049 42.2014 21.5747 47.0691C21.8505 47.1627 22.1495 47.1627 22.4253 47.0691C36.3195 42.2014 43.2666 28.1182 43.2666 16.4924V10.1597C43.2628 9.93315 43.194 9.71246 43.0683 9.52393C42.9426 9.33539 42.7654 9.18698 42.5577 9.09638ZM33.0775 16.9178L20.6011 32.8015C20.4198 33.0305 20.1922 33.2187 19.9333 33.3539C19.6743 33.4891 19.3898 33.5682 19.0983 33.586L18.9754 33.5908C18.426 33.5898 17.8993 33.3715 17.5104 32.9835L11.0831 26.5563C10.6955 26.1677 10.4781 25.6411 10.4788 25.0923C10.4795 24.5434 10.6981 24.0173 11.0867 23.6297C11.4752 23.2421 12.0019 23.0247 12.5507 23.0254C13.0995 23.0261 13.6256 23.2447 14.0132 23.6333L18.7911 28.4112L29.8261 14.3634C30.1711 13.95 30.6636 13.6873 31.1991 13.631C31.7346 13.5747 32.2709 13.7293 32.6943 14.062C33.1177 14.3947 33.3948 14.8792 33.4668 15.4129C33.5388 15.9465 33.4 16.4871 33.0799 16.9201L33.0775 16.9178Z" fill="white"/>
</svg>
