<svg width="46" height="39" viewBox="0 0 46 39" fill="none" xmlns="http://www.w3.org/2000/svg">
<path d="M30.0891 12.5389C31.6558 12.5389 33.1584 11.9165 34.2662 10.8087C35.3741 9.70081 35.9965 8.19825 35.9965 6.63151C35.9965 5.06477 35.3741 3.56221 34.2662 2.45436C33.1584 1.3465 31.6558 0.724121 30.0891 0.724121C28.5224 0.724121 27.0198 1.3465 25.9119 2.45436C24.8041 3.56221 24.1817 5.06477 24.1817 6.63151C24.1817 8.19825 24.8041 9.70081 25.9119 10.8087C27.0198 11.9165 28.5224 12.5389 30.0891 12.5389ZM43.9006 9.85222C35.4412 15.8896 31.5447 14.8333 27.7261 14.7128C25.0844 14.5781 24.1817 15.417 24.1817 17.2648L24.1841 31.4425C24.1841 43.2573 44.0825 39.5475 36.3887 19.7483C40.3372 17.4822 43.6572 13.9968 45.5475 11.6859C46.5187 10.2492 45.4814 8.74399 43.9006 9.85222ZM15.9114 0.724121C14.3446 0.724121 12.8421 1.3465 11.7342 2.45436C10.6264 3.56221 10.004 5.06477 10.004 6.63151C10.004 8.19825 10.6264 9.70081 11.7342 10.8087C12.8421 11.9165 14.3446 12.5389 15.9114 12.5389C17.4781 12.5389 18.9807 11.9165 20.0885 10.8087C21.1964 9.70081 21.8187 8.19825 21.8187 6.63151C21.8187 5.06477 21.1964 3.56221 20.0885 2.45436C18.9807 1.3465 17.4781 0.724121 15.9114 0.724121ZM18.2743 14.7128C14.4558 14.8333 10.5593 15.8896 2.09989 9.85222C0.519069 8.74399 -0.518268 10.2492 0.452907 11.6835C2.34327 13.9968 5.66322 17.4798 9.61172 19.7459C1.91794 39.5451 21.8164 43.255 21.8164 31.4402L21.8187 17.2624C21.8187 15.417 20.9161 14.5781 18.2743 14.7128Z" fill="white"/>
</svg>
