<svg width="42" height="52" viewBox="0 0 42 52" fill="none" xmlns="http://www.w3.org/2000/svg">
<path d="M4.79733 30.3555C3.02431 27.4519 2.08951 24.1143 2.09647 20.7122C2.09647 10.3767 10.5606 2 21.0001 2C31.4397 2 39.9038 10.3767 39.9038 20.7122C39.9107 24.1143 38.9759 27.4519 37.2029 30.3555M28.089 42.1702L27.7818 43.6991C27.451 45.3697 27.2832 46.2038 26.9075 46.8654C26.3286 47.8852 25.3912 48.6533 24.2775 49.0204C23.5568 49.2591 22.7014 49.2591 21.0001 49.2591C19.2988 49.2591 18.4434 49.2591 17.7227 49.0228C16.6087 48.655 15.6712 47.8861 15.0927 46.8654C14.717 46.2038 14.5492 45.3697 14.2184 43.6991L13.9113 42.1702M10.0904 37.6759C9.87296 37.0237 9.76426 36.6953 9.77608 36.4306C9.78945 36.157 9.88181 35.8931 10.042 35.6708C10.2022 35.4486 10.4234 35.2775 10.6787 35.1783C10.9245 35.0814 11.2695 35.0814 11.9547 35.0814H30.0455C30.7331 35.0814 31.0758 35.0814 31.3215 35.1759C31.5772 35.2753 31.7986 35.4467 31.9589 35.6694C32.1191 35.8921 32.2112 36.1566 32.2242 36.4306C32.236 36.6953 32.1273 37.0214 31.9099 37.6759C31.5082 38.8834 31.3073 39.4883 30.9978 39.9774C30.3503 40.9997 29.3354 41.7346 28.1622 42.0308C27.5999 42.1702 26.9666 42.1702 25.6977 42.1702H16.3026C15.0337 42.1702 14.398 42.1702 13.838 42.0285C12.6652 41.7328 11.6503 40.9988 11.0025 39.9774C10.6929 39.4883 10.4921 38.8834 10.0904 37.6759Z" stroke="white" stroke-width="3.54443" stroke-linecap="round" stroke-linejoin="round"/>
<path d="M12.1389 20.313L17.4556 25.6296V35.0815M29.8611 20.313L24.5444 25.6296V35.0815M12.1389 22.0852C12.6089 22.0852 13.0597 21.8985 13.3921 21.5661C13.7244 21.2338 13.9111 20.783 13.9111 20.313C13.9111 19.843 13.7244 19.3922 13.3921 19.0598C13.0597 18.7275 12.6089 18.5408 12.1389 18.5408C11.6689 18.5408 11.2181 18.7275 10.8858 19.0598C10.5534 19.3922 10.3667 19.843 10.3667 20.313C10.3667 20.783 10.5534 21.2338 10.8858 21.5661C11.2181 21.8985 11.6689 22.0852 12.1389 22.0852ZM29.8611 22.0852C29.3911 22.0852 28.9403 21.8985 28.6079 21.5661C28.2756 21.2338 28.0889 20.783 28.0889 20.313C28.0889 19.843 28.2756 19.3922 28.6079 19.0598C28.9403 18.7275 29.3911 18.5408 29.8611 18.5408C30.3311 18.5408 30.7819 18.7275 31.1142 19.0598C31.4466 19.3922 31.6333 19.843 31.6333 20.313C31.6333 20.783 31.4466 21.2338 31.1142 21.5661C30.7819 21.8985 30.3311 22.0852 29.8611 22.0852Z" stroke="white" stroke-width="3.54443" stroke-linecap="round" stroke-linejoin="round"/>
</svg>
