<svg width="52" height="53" viewBox="0 0 52 53" fill="none" xmlns="http://www.w3.org/2000/svg">
<g clip-path="url(#clip0_114_84)">
<path d="M32.4981 40.5775C31.5234 40.5775 30.8736 40.2526 29.8989 39.9277L26 38.3032L22.1011 39.9277C21.4513 40.2526 20.4766 40.5775 19.5019 40.5775C18.8521 40.5775 18.5272 40.5775 17.8774 40.2526L16.2528 52.924L26 46.4259L35.7472 52.924L33.7978 40.2526C33.4729 40.5775 32.8231 40.5775 32.4981 40.5775ZM41.9204 20.1084C41.5955 19.4586 41.5955 18.4839 41.9204 17.8341L43.8699 13.9352C44.5197 12.6356 43.8699 11.0111 42.2453 10.3612L38.0216 8.73672C37.3717 8.41181 36.7219 7.762 36.397 7.11219L34.7725 2.8884C34.4476 1.58878 33.4729 0.938965 32.4981 0.938965C32.1732 0.938965 31.5234 0.938965 31.1985 1.26387L26.9747 3.21331H26C25.6751 3.21331 25.3502 3.21331 25.0253 2.8884L20.8015 1.26387C20.4766 0.938965 19.8268 0.938965 19.5019 0.938965C18.5272 0.938965 17.5525 1.58878 16.9026 2.5635L15.2781 7.11219C15.2781 7.762 14.6283 8.41181 13.9785 8.73672L9.42979 10.3612C8.13017 10.6862 7.48036 12.3107 8.13017 13.9352L10.0796 18.159C10.4045 18.8088 10.4045 19.7835 10.0796 20.4333L8.13017 24.3322C7.48036 25.6318 8.13017 27.2564 9.7547 27.9062L13.9785 29.5307C14.6283 29.8556 15.2781 30.5054 15.603 31.1553L17.2275 35.379C17.5525 36.6787 18.5272 37.3285 19.5019 37.3285C19.8268 37.3285 20.1517 37.3285 20.4766 37.0036L24.7004 35.0541C25.0253 35.0541 25.3502 34.7292 25.6751 34.7292C26 34.7292 26.3249 34.7292 26.6498 35.0541L30.8736 37.0036C31.1985 37.3285 31.5234 37.3285 31.8483 37.3285C32.8231 37.3285 33.7978 36.6787 34.4476 35.7039L36.0721 31.4802C36.397 30.8303 37.0468 30.1805 37.6966 29.8556L41.9204 28.2311C43.2201 27.5813 44.1948 25.9568 43.545 24.6571L41.9204 20.1084ZM26 32.13C18.8521 32.13 13.0038 26.2817 13.0038 19.1337C13.0038 11.9858 18.8521 6.13747 26 6.13747C33.148 6.13747 38.9963 11.9858 38.9963 19.1337C38.9963 26.2817 33.148 32.13 26 32.13Z" fill="white"/>
<path d="M35.7473 19.1337C35.7473 21.7188 34.7204 24.198 32.8924 26.026C31.0645 27.8539 28.5852 28.8809 26.0001 28.8809C23.415 28.8809 20.9358 27.8539 19.1078 26.026C17.2799 24.198 16.2529 21.7188 16.2529 19.1337C16.2529 16.5486 17.2799 14.0693 19.1078 12.2414C20.9358 10.4134 23.415 9.38647 26.0001 9.38647C28.5852 9.38647 31.0645 10.4134 32.8924 12.2414C34.7204 14.0693 35.7473 16.5486 35.7473 19.1337Z" fill="white"/>
</g>
<defs>
<clipPath id="clip0_114_84">
<rect width="51.985" height="51.985" fill="white" transform="translate(0.00756836 0.938965)"/>
</clipPath>
</defs>
</svg>
