<svg width="38" height="39" viewBox="0 0 38 39" fill="none" xmlns="http://www.w3.org/2000/svg">
<path opacity="0.2" d="M25.3312 16.7826C25.3312 18.0347 24.9599 19.2588 24.2643 20.2999C23.5686 21.341 22.5798 22.1525 21.423 22.6317C20.2661 23.1108 18.9932 23.2362 17.7651 22.9919C16.537 22.7476 15.4089 22.1447 14.5235 21.2593C13.6381 20.3739 13.0351 19.2458 12.7908 18.0177C12.5466 16.7896 12.6719 15.5166 13.1511 14.3598C13.6303 13.2029 14.4418 12.2142 15.4829 11.5185C16.524 10.8228 17.7481 10.4515 19.0002 10.4515C20.6793 10.4515 22.2896 11.1186 23.4769 12.3059C24.6642 13.4931 25.3312 15.1035 25.3312 16.7826Z" fill="white"/>
<path d="M37.993 2.53783V9.66023C37.993 10.08 37.8262 10.4826 37.5294 10.7794C37.2326 11.0762 36.83 11.243 36.4102 11.243C35.9904 11.243 35.5878 11.0762 35.291 10.7794C34.9942 10.4826 34.8274 10.08 34.8274 9.66023V4.12059H29.2878C28.868 4.12059 28.4655 3.95383 28.1686 3.65701C27.8718 3.36019 27.705 2.95761 27.705 2.53783C27.705 2.11806 27.8718 1.71548 28.1686 1.41866C28.4655 1.12183 28.868 0.955078 29.2878 0.955078H36.4102C36.83 0.955078 37.2326 1.12183 37.5294 1.41866C37.8262 1.71548 37.993 2.11806 37.993 2.53783ZM36.4102 28.6533C35.9904 28.6533 35.5878 28.82 35.291 29.1169C34.9942 29.4137 34.8274 29.8163 34.8274 30.236V35.7757H29.2878C28.868 35.7757 28.4655 35.9424 28.1686 36.2393C27.8718 36.5361 27.705 36.9387 27.705 37.3584C27.705 37.7782 27.8718 38.1808 28.1686 38.4776C28.4655 38.7744 28.868 38.9412 29.2878 38.9412H36.4102C36.83 38.9412 37.2326 38.7744 37.5294 38.4776C37.8262 38.1808 37.993 37.7782 37.993 37.3584V30.236C37.993 29.8163 37.8262 29.4137 37.5294 29.1169C37.2326 28.82 36.83 28.6533 36.4102 28.6533ZM8.71199 35.7757H3.17235V30.236C3.17235 29.8163 3.00559 29.4137 2.70877 29.1169C2.41194 28.82 2.00936 28.6533 1.58959 28.6533C1.16982 28.6533 0.767239 28.82 0.470414 29.1169C0.17359 29.4137 0.00683594 29.8163 0.00683594 30.236V37.3584C0.00683594 37.7782 0.17359 38.1808 0.470414 38.4776C0.767239 38.7744 1.16982 38.9412 1.58959 38.9412H8.71199C9.13176 38.9412 9.53434 38.7744 9.83117 38.4776C10.128 38.1808 10.2947 37.7782 10.2947 37.3584C10.2947 36.9387 10.128 36.5361 9.83117 36.2393C9.53434 35.9424 9.13176 35.7757 8.71199 35.7757ZM1.58959 11.243C2.00936 11.243 2.41194 11.0762 2.70877 10.7794C3.00559 10.4826 3.17235 10.08 3.17235 9.66023V4.12059H8.71199C9.13176 4.12059 9.53434 3.95383 9.83117 3.65701C10.128 3.36019 10.2947 2.95761 10.2947 2.53783C10.2947 2.11806 10.128 1.71548 9.83117 1.41866C9.53434 1.12183 9.13176 0.955078 8.71199 0.955078H1.58959C1.16982 0.955078 0.767239 1.12183 0.470414 1.41866C0.17359 1.71548 0.00683594 2.11806 0.00683594 2.53783V9.66023C0.00683594 10.08 0.17359 10.4826 0.470414 10.7794C0.767239 11.0762 1.16982 11.243 1.58959 11.243ZM28.4964 29.4447C28.2505 29.4452 28.0079 29.3885 27.7878 29.2789C27.5677 29.1694 27.3761 29.01 27.2282 28.8135C26.27 27.5358 25.0273 26.4988 23.5988 25.7845C22.1703 25.0702 20.5951 24.6984 18.9979 24.6984C17.4008 24.6984 15.8256 25.0702 14.397 25.7845C12.9685 26.4988 11.7259 27.5358 10.7676 28.8135C10.5152 29.1494 10.1398 29.3712 9.72383 29.4302C9.3079 29.4892 8.88557 29.3805 8.54976 29.1281C8.21394 28.8757 7.99214 28.5003 7.93314 28.0844C7.87415 27.6684 7.98279 27.2461 8.23518 26.9103C9.63788 25.0321 11.5074 23.5534 13.6581 22.621C12.4796 21.545 11.6539 20.1379 11.2894 18.5842C10.9249 17.0305 11.0386 15.403 11.6157 13.9151C12.1927 12.4273 13.2061 11.1486 14.5228 10.247C15.8396 9.34536 17.3981 8.86289 18.994 8.86289C20.5898 8.86289 22.1484 9.34536 23.4651 10.247C24.7818 11.1486 25.7952 12.4273 26.3723 13.9151C26.9493 15.403 27.063 17.0305 26.6986 18.5842C26.3341 20.1379 25.5084 21.545 24.3298 22.621C26.482 23.5529 28.3529 25.0316 29.7567 26.9103C29.9333 27.145 30.0411 27.4243 30.0681 27.7168C30.095 28.0094 30.04 28.3036 29.9092 28.5667C29.7784 28.8297 29.577 29.0511 29.3274 29.2062C29.0779 29.3613 28.7902 29.4438 28.4964 29.4447ZM18.9999 21.5309C19.939 21.5309 20.857 21.2524 21.6379 20.7307C22.4187 20.2089 23.0273 19.4673 23.3867 18.5997C23.7461 17.7321 23.8401 16.7774 23.6569 15.8563C23.4737 14.9352 23.0215 14.0892 22.3574 13.4251C21.6934 12.761 20.8473 12.3088 19.9262 12.1256C19.0052 11.9424 18.0504 12.0364 17.1828 12.3958C16.3152 12.7552 15.5736 13.3638 15.0519 14.1446C14.5301 14.9255 14.2516 15.8435 14.2516 16.7826C14.2516 18.0419 14.7519 19.2497 15.6424 20.1402C16.5328 21.0306 17.7406 21.5309 18.9999 21.5309Z" fill="white"/>
</svg>
