<svg width="52" height="52" viewBox="0 0 52 52" fill="none" xmlns="http://www.w3.org/2000/svg">
<path d="M2.37036 26.3705C2.37036 15.2315 2.37036 9.66206 5.82973 6.20033C9.29382 2.74097 14.8609 2.74097 25.9999 2.74097C37.1389 2.74097 42.7084 2.74097 46.1677 6.20033C49.6295 9.66443 49.6295 15.2315 49.6295 26.3705C49.6295 37.5095 49.6295 43.079 46.1677 46.5383C42.7107 50.0001 37.1389 50.0001 25.9999 50.0001C14.8609 50.0001 9.29146 50.0001 5.82973 46.5383C2.37036 43.0813 2.37036 37.5095 2.37036 26.3705Z" stroke="white" stroke-width="3.54443"/>
<path d="M14.1853 31.0964L19.6036 25.6781C20.0467 25.2351 20.6476 24.9863 21.2742 24.9863C21.9007 24.9863 22.5017 25.2351 22.9448 25.6781L26.6924 29.4257C27.1355 29.8687 27.7365 30.1176 28.363 30.1176C28.9896 30.1176 29.5905 29.8687 30.0336 29.4257L37.8149 21.6445M37.8149 21.6445V27.5519M37.8149 21.6445H31.9075" stroke="white" stroke-width="3.54443" stroke-linecap="round" stroke-linejoin="round"/>
</svg>
